<?xml version="1.0" encoding="UTF-8"?>
<!DOCTYPE svg PUBLIC "-//W3C//DTD SVG 1.1//EN" "http://www.w3.org/Graphics/SVG/1.1/DTD/svg11.dtd">
<!-- Creator: CorelDRAW X7 -->
<svg xmlns="http://www.w3.org/2000/svg" xml:space="preserve" width="5.4186mm" height="5.4186mm" version="1.1" style="shape-rendering:geometricPrecision; text-rendering:geometricPrecision; image-rendering:optimizeQuality; fill-rule:evenodd; clip-rule:evenodd"
viewBox="0 0 542 542"
 xmlns:xlink="http://www.w3.org/1999/xlink">
 <defs>
  <style type="text/css">
   <![CDATA[
    .fil0 {fill:#FEFEFE}
   ]]>
  </style>
 </defs>
 <g id="Camada_x0020_1">
  <metadata id="CorelCorpID_0Corel-Layer"/>
  <path class="fil0" d="M271 87c81,0 147,66 147,147 0,9 -1,19 -3,28l0 0c-16,100 -70,183 -97,193 -34,3 -128,-70 -172,-143 -14,-23 -22,-50 -22,-78 0,-81 66,-147 147,-147zm-2 46c51,0 92,41 92,92 0,51 -41,92 -92,92 -50,0 -91,-41 -91,-92 0,-51 41,-92 91,-92z"/>
 </g>
</svg>
