<?xml version="1.0" encoding="UTF-8"?>
<!DOCTYPE svg PUBLIC "-//W3C//DTD SVG 1.1//EN" "http://www.w3.org/Graphics/SVG/1.1/DTD/svg11.dtd">
<!-- Creator: CorelDRAW X7 -->
<svg xmlns="http://www.w3.org/2000/svg" xml:space="preserve" width="50.4186mm" height="50.4186mm" version="1.1" style="shape-rendering:geometricPrecision; text-rendering:geometricPrecision; image-rendering:optimizeQuality; fill-rule:evenodd; clip-rule:evenodd"
viewBox="0 0 542 542"
 xmlns:xlink="http://www.w3.org/1999/xlink">
 <defs>
  <style type="text/css">
   <![CDATA[
    .fil0 {fill:#FEFEFE}
   ]]>
  </style>
 </defs>
 <g id="Camada_x0020_1">
  <metadata id="CorelCorpID_0Corel-Layer"/>
  <g id="_2035590320160">
   <path class="fil0" d="M272 403c-5,-6 -9,-10 -12,-13 -6,-4 -11,-6 -16,-6 -5,1 -10,2 -16,5 -2,2 -7,4 -14,8 -5,3 -9,4 -12,5 -8,0 -14,-2 -19,-7l-2 2c5,6 9,10 12,13 5,4 11,6 16,6 5,-1 10,-2 15,-5 3,-2 8,-5 15,-8 5,-3 9,-5 13,-5 7,0 13,2 18,7l2 -2z"/>
   <path class="fil0" d="M357 405c-5,-6 -10,-11 -13,-13 -5,-4 -10,-6 -16,-6 -5,0 -10,2 -15,5 -3,1 -8,4 -14,8 -5,3 -9,4 -13,4 -7,0 -14,-2 -19,-6l-2 2c6,6 10,10 13,12 5,4 10,6 16,6 5,0 10,-1 15,-4 3,-2 8,-5 14,-9 5,-2 10,-4 13,-4 7,0 13,2 19,7l2 -2z"/>
   <path class="fil0" d="M437 406c-5,-6 -9,-10 -12,-13 -5,-4 -10,-6 -16,-6 -5,1 -10,2 -15,5 -3,2 -8,4 -14,8 -5,3 -10,4 -13,4 -8,1 -14,-1 -19,-6l-2 2c5,6 10,10 12,13 6,4 11,6 17,5 4,0 10,-1 15,-4 3,-2 8,-5 14,-8 5,-3 10,-5 13,-5 7,0 13,2 19,7l1 -2z"/>
   <path class="fil0" d="M196 437c-5,-6 -9,-10 -13,-13 -5,-4 -10,-6 -16,-6 -5,1 -10,2 -15,5 -3,2 -7,4 -14,8 -5,3 -9,4 -13,5 -7,0 -14,-2 -19,-7l-2 2c6,6 10,10 13,13 5,4 10,6 16,6 5,-1 10,-2 15,-5 3,-2 8,-4 14,-8 6,-3 10,-5 13,-5 7,0 13,2 19,7l2 -2z"/>
   <path class="fil0" d="M280 439c-5,-6 -9,-11 -12,-13 -5,-4 -11,-6 -16,-6 -5,0 -10,2 -15,5 -3,1 -8,4 -14,8 -5,3 -10,4 -13,4 -8,0 -14,-2 -19,-6l-2 2c5,6 9,10 12,12 6,4 11,6 16,6 5,0 10,-1 16,-4 3,-2 7,-5 14,-9 5,-2 9,-4 13,-4 7,0 13,2 18,7l2 -2z"/>
   <path class="fil0" d="M361 440c-5,-6 -9,-10 -12,-13 -5,-4 -11,-6 -16,-6 -5,1 -10,2 -16,5 -2,2 -7,4 -13,8 -6,3 -10,4 -13,5 -8,0 -14,-2 -19,-7l-2 2c5,6 9,10 12,13 5,4 11,6 16,6 5,-1 10,-2 15,-5 3,-2 8,-5 15,-8 5,-3 9,-5 13,-5 7,0 13,2 18,7l2 -2z"/>
   <path class="fil0" d="M374 296c-24,-39 -107,-59 -175,-51l51 131c40,-26 84,-54 124,-80z"/>
   <path class="fil0" d="M372 282c-29,-107 -106,-170 -234,-193l58 149c80,-9 150,13 176,44z"/>
  </g>
 </g>
</svg>
