<?xml version="1.0" encoding="UTF-8"?>
<!DOCTYPE svg PUBLIC "-//W3C//DTD SVG 1.1//EN" "http://www.w3.org/Graphics/SVG/1.1/DTD/svg11.dtd">
<!-- Creator: CorelDRAW X7 -->
<svg xmlns="http://www.w3.org/2000/svg" xml:space="preserve" width="50.4186mm" height="50.4186mm" version="1.1" style="shape-rendering:geometricPrecision; text-rendering:geometricPrecision; image-rendering:optimizeQuality; fill-rule:evenodd; clip-rule:evenodd"
viewBox="0 0 542 542"
 xmlns:xlink="http://www.w3.org/1999/xlink">
 <defs>
  <style type="text/css">
   <![CDATA[
    .fil0 {fill:#FEFEFE}
   ]]>
  </style>
 </defs>
 <g id="Camada_x0020_1">
  <metadata id="CorelCorpID_0Corel-Layer"/>
  <g id="_2035463899344">
   <path class="fil0" d="M455 88c0,2 1,4 1,7l0 180c0,57 -47,103 -103,103l-16 0 0 -68 77 0c-13,-29 -43,-49 -77,-49l0 -105c0,-4 0,-8 -2,-11 -15,3 -32,6 -51,8 0,0 -1,0 -1,0 -3,0 -5,0 -8,1 -18,2 -37,3 -58,4l0 -63c0,-3 1,-5 1,-7 33,6 74,10 118,10 45,0 86,-4 119,-10zm-65 64c17,0 31,14 31,31 0,17 -14,31 -31,31 -17,0 -31,-14 -31,-31 0,-17 14,-31 31,-31z"/>
   <path class="fil0" d="M323 163c1,2 1,5 1,8l0 180c0,57 -46,103 -102,103l-33 0c-57,0 -103,-46 -103,-103l0 -180c0,-3 1,-6 2,-8 32,6 73,10 117,10 45,0 86,-4 118,-10zm-40 196c-14,30 -43,50 -77,50 -34,0 -64,-20 -77,-50l154 0zm-24 -131c17,0 31,14 31,31 0,17 -14,31 -31,31 -17,0 -31,-14 -31,-31 0,-17 14,-31 31,-31zm-107 1c17,0 31,14 31,31 0,17 -14,31 -31,31 -17,0 -31,-14 -31,-31 0,-17 14,-31 31,-31z"/>
  </g>
 </g>
</svg>
