<?xml version="1.0" encoding="UTF-8"?>
<!DOCTYPE svg PUBLIC "-//W3C//DTD SVG 1.1//EN" "http://www.w3.org/Graphics/SVG/1.1/DTD/svg11.dtd">
<!-- Creator: CorelDRAW X7 -->
<svg xmlns="http://www.w3.org/2000/svg" xml:space="preserve" width="50.4186mm" height="50.4186mm" version="1.1" style="shape-rendering:geometricPrecision; text-rendering:geometricPrecision; image-rendering:optimizeQuality; fill-rule:evenodd; clip-rule:evenodd"
viewBox="0 0 542 542"
 xmlns:xlink="http://www.w3.org/1999/xlink">
 <defs>
  <style type="text/css">
   <![CDATA[
    .fil0 {fill:#FEFEFE}
   ]]>
  </style>
 </defs>
 <g id="Camada_x0020_1">
  <metadata id="CorelCorpID_0Corel-Layer"/>
  <g id="_2035586710976">
   <path class="fil0" d="M101 117l57 0 0 46c0,6 6,11 13,11l17 0c7,0 12,-5 12,-11l0 -46 147 0 0 45c0,6 6,11 13,11l17 0c7,0 12,-5 12,-11l0 -45 52 0c9,0 16,7 16,15l0 307c0,9 -7,16 -16,16l-340 0c-9,0 -16,-7 -16,-16l0 -307c0,-8 7,-15 16,-15zm7 95l326 0 0 218 -326 0 0 -218z"/>
   <rect class="fil0" x="140" y="301" width="48.6852" height="45.2684" rx="2" ry="2"/>
   <rect class="fil0" x="211" y="301" width="48.6852" height="45.2684" rx="2" ry="2"/>
   <rect class="fil0" x="281" y="301" width="48.6852" height="45.2684" rx="2" ry="2"/>
   <rect class="fil0" x="352" y="301" width="48.6852" height="45.2684" rx="2" ry="2"/>
   <rect class="fil0" x="352" y="239" width="48.6852" height="45.2684" rx="2" ry="2"/>
   <rect class="fil0" x="281" y="239" width="48.6852" height="45.2684" rx="2" ry="2"/>
   <rect class="fil0" x="281" y="362" width="48.6852" height="45.2684" rx="2" ry="2"/>
   <rect class="fil0" x="211" y="362" width="48.6852" height="45.2684" rx="2" ry="2"/>
   <rect class="fil0" x="140" y="362" width="48.6852" height="45.2684" rx="2" ry="2"/>
   <rect class="fil0" x="352" y="362" width="48.6852" height="45.2684" rx="2" ry="2"/>
   <path class="fil0" d="M173 88l12 0c5,0 9,4 9,9l0 61c0,6 -4,10 -9,10l-12 0c-5,0 -9,-4 -9,-10l0 -61c0,-5 4,-9 9,-9z"/>
   <path class="fil0" d="M362 87l12 0c5,0 9,4 9,10l0 61c0,5 -4,9 -9,9l-12 0c-5,0 -9,-4 -9,-9l0 -61c0,-6 4,-10 9,-10z"/>
  </g>
 </g>
</svg>
