<?xml version="1.0" encoding="UTF-8"?>
<!DOCTYPE svg PUBLIC "-//W3C//DTD SVG 1.1//EN" "http://www.w3.org/Graphics/SVG/1.1/DTD/svg11.dtd">
<!-- Creator: CorelDRAW X7 -->
<svg xmlns="http://www.w3.org/2000/svg" xml:space="preserve" width="50.4186mm" height="50.4186mm" version="1.1" style="shape-rendering:geometricPrecision; text-rendering:geometricPrecision; image-rendering:optimizeQuality; fill-rule:evenodd; clip-rule:evenodd"
viewBox="0 0 542 542"
 xmlns:xlink="http://www.w3.org/1999/xlink">
 <defs>
  <style type="text/css">
   <![CDATA[
    .fil0 {fill:#FEFEFE}
   ]]>
  </style>
 </defs>
 <g id="Camada_x0020_1">
  <metadata id="CorelCorpID_0Corel-Layer"/>
  <path class="fil0" d="M271 209c9,0 18,1 27,2 -2,-5 -5,-10 -10,-13 -9,-8 -19,-9 -29,0 -4,4 -5,8 -4,12 5,0 11,-1 16,-1zm-211 205l422 0c5,0 10,4 10,9l0 15c0,6 -5,10 -10,10l-422 0c-6,0 -10,-4 -10,-10l0 -15c0,-5 4,-9 10,-9zm337 -318c-7,7 -12,12 -15,16 -5,7 -7,13 -7,20 0,6 2,13 6,19 2,3 6,9 11,17 3,6 5,12 6,16 0,9 -2,17 -8,24l3 2c7,-7 12,-12 15,-16 5,-7 7,-13 7,-20 -1,-6 -3,-12 -6,-19 -3,-4 -6,-9 -11,-17 -4,-7 -6,-12 -6,-16 -1,-9 2,-17 8,-23l-3 -3zm-33 -2c-7,6 -12,12 -15,16 -5,6 -7,13 -7,20 0,6 2,12 6,19 2,3 6,9 11,17 3,6 5,11 6,16 0,9 -2,17 -8,23l3 3c7,-7 12,-12 15,-16 5,-7 7,-14 7,-20 -1,-6 -3,-13 -6,-19 -3,-4 -6,-10 -11,-18 -4,-6 -6,-11 -6,-15 -1,-9 2,-17 7,-24l-2 -2zm-65 117c88,12 156,79 156,160 0,5 -1,10 -1,15l-306 0c0,-1 0,-2 0,-3 0,-72 46,-135 111,-162 -82,16 -144,81 -144,158 0,2 0,5 0,7l-27 0c-1,-5 -1,-10 -1,-15 0,-81 68,-148 157,-160 -1,0 -1,-1 -1,-2 0,-5 1,-10 5,-14 12,-13 32,-15 46,-2 4,6 5,12 5,18z"/>
 </g>
</svg>
