<?xml version="1.0" encoding="UTF-8"?>
<!DOCTYPE svg PUBLIC "-//W3C//DTD SVG 1.1//EN" "http://www.w3.org/Graphics/SVG/1.1/DTD/svg11.dtd">
<!-- Creator: CorelDRAW X7 -->
<svg xmlns="http://www.w3.org/2000/svg" xml:space="preserve" width="50.4186mm" height="50.4186mm" version="1.1" style="shape-rendering:geometricPrecision; text-rendering:geometricPrecision; image-rendering:optimizeQuality; fill-rule:evenodd; clip-rule:evenodd"
viewBox="0 0 542 542"
 xmlns:xlink="http://www.w3.org/1999/xlink">
 <defs>
  <style type="text/css">
   <![CDATA[
    .fil0 {fill:#FEFEFE}
   ]]>
  </style>
 </defs>
 <g id="Camada_x0020_1">
  <metadata id="CorelCorpID_0Corel-Layer"/>
  <g id="_2035587408448">
   <rect class="fil0" x="83" y="388" width="375.84" height="23.2512" rx="9" ry="7"/>
   <rect class="fil0" x="53" y="421" width="434.915" height="31.0017" rx="11" ry="9"/>
   <rect class="fil0" x="83" y="178" width="375.84" height="23.2512" rx="9" ry="7"/>
   <g>
    <rect class="fil0" x="120" y="209" width="34.8784" height="171.623" rx="5" ry="6"/>
    <rect class="fil0" x="209" y="209" width="34.8784" height="171.623" rx="5" ry="6"/>
    <rect class="fil0" x="298" y="209" width="34.8784" height="171.623" rx="5" ry="6"/>
    <rect class="fil0" x="387" y="209" width="34.8784" height="171.623" rx="5" ry="6"/>
   </g>
   <polygon class="fil0" points="456,171 85,169 270,90 "/>
  </g>
  <path class="fil0" d="M270 70l2 0c3,0 5,2 5,5l0 29 32 0c3,0 5,2 5,5l0 2c0,3 -2,5 -5,5l-32 0 0 35c0,0 0,1 0,1l161 118 -49 0 0 185c0,9 -7,17 -16,17l-204 0c-9,0 -17,-8 -17,-17l0 -185 -48 0 161 -119c0,0 0,0 0,0l0 -35 -32 0c-3,0 -5,-2 -5,-5l0 -2c0,-3 2,-5 5,-5l32 0 0 -29c0,-3 2,-5 5,-5zm-34 227l70 0c9,0 17,8 17,17l0 70c0,9 -8,17 -17,17l-70 0c-10,0 -18,-8 -18,-17l0 -70c0,-9 8,-17 18,-17z"/>
 </g>
</svg>
