<?xml version="1.0" encoding="UTF-8"?>
<!DOCTYPE svg PUBLIC "-//W3C//DTD SVG 1.1//EN" "http://www.w3.org/Graphics/SVG/1.1/DTD/svg11.dtd">
<!-- Creator: CorelDRAW X7 -->
<svg xmlns="http://www.w3.org/2000/svg" xml:space="preserve" width="50.4186mm" height="50.4186mm" version="1.1" style="shape-rendering:geometricPrecision; text-rendering:geometricPrecision; image-rendering:optimizeQuality; fill-rule:evenodd; clip-rule:evenodd"
viewBox="0 0 542 542"
 xmlns:xlink="http://www.w3.org/1999/xlink">
 <defs>
  <style type="text/css">
   <![CDATA[
    .fil0 {fill:#FEFEFE}
   ]]>
  </style>
 </defs>
 <g id="Camada_x0020_1">
  <metadata id="CorelCorpID_0Corel-Layer"/>
  <g id="_1297831232496">
   <path class="fil0" d="M269 230c54,0 98,41 98,92 0,5 -1,10 -2,15l-192 0c-1,-5 -1,-10 -1,-15 0,-51 44,-92 97,-92z"/>
   <rect class="fil0" x="260" y="100" width="17.8479" height="111.955" rx="8" ry="8"/>
   <rect class="fil0" transform="matrix(0.0784924 0.0453176 -0.0453176 0.0784924 378.627 126.248)" width="197" height="1235" rx="90" ry="90"/>
   <rect class="fil0" transform="matrix(0.0453176 0.0784924 -0.0784924 0.0453176 468.008 207.908)" width="197" height="1235" rx="90" ry="90"/>
   <rect class="fil0" transform="matrix(2.39991E-015 0.0906352 -0.0906352 2.39991E-015 504.583 319.262)" width="197" height="1235" rx="90" ry="90"/>
   <rect class="fil0" transform="matrix(0.0784924 -0.0453176 0.0453176 0.0784924 144.981 136.794)" width="197" height="1235" rx="90" ry="90"/>
   <rect class="fil0" transform="matrix(0.0453176 -0.0784924 0.0784924 0.0453176 63.3212 226.175)" width="197" height="1235" rx="90" ry="90"/>
   <rect class="fil0" transform="matrix(2.39991E-015 -0.0906352 0.0906352 2.39991E-015 37.2918 337.11)" width="197" height="1235" rx="90" ry="90"/>
   <path class="fil0" d="M271 389c-5,-7 -10,-12 -13,-14 -6,-4 -11,-7 -17,-6 -6,0 -11,1 -17,4 -3,2 -8,5 -15,9 -5,3 -10,5 -14,5 -8,0 -14,-2 -20,-7l-2 2c6,7 10,11 13,14 6,4 12,6 18,6 5,0 10,-2 16,-5 3,-2 8,-5 15,-9 6,-3 11,-5 14,-5 8,0 14,3 20,8l2 -2z"/>
   <path class="fil0" d="M362 390c-5,-6 -10,-11 -13,-13 -6,-5 -12,-7 -17,-7 -6,0 -11,2 -17,5 -3,2 -8,5 -15,9 -5,3 -10,5 -14,5 -8,0 -14,-2 -20,-7l-2 2c6,6 10,11 13,13 6,5 12,7 18,7 5,0 10,-2 16,-5 3,-2 8,-5 15,-9 6,-3 10,-5 14,-5 8,0 14,2 20,7l2 -2z"/>
   <path class="fil0" d="M449 392c-6,-7 -10,-11 -13,-14 -6,-4 -12,-6 -17,-6 -6,0 -11,1 -17,5 -3,1 -8,4 -15,8 -6,3 -10,5 -14,5 -8,0 -15,-2 -20,-7l-2 2c5,7 10,11 13,14 6,4 11,6 17,6 6,0 11,-2 17,-5 3,-2 8,-5 15,-9 6,-3 10,-4 14,-4 7,-1 14,2 20,7l2 -2z"/>
   <path class="fil0" d="M280 427c-5,-7 -10,-11 -13,-14 -6,-4 -12,-6 -17,-6 -6,0 -11,2 -17,5 -3,2 -8,5 -15,8 -5,4 -10,5 -14,5 -8,0 -14,-2 -20,-7l-2 2c6,7 10,12 13,14 6,4 12,6 18,6 5,0 10,-2 16,-5 3,-2 8,-4 15,-8 6,-4 10,-5 14,-5 8,0 14,2 20,7l2 -2z"/>
   <path class="fil0" d="M189 425c-5,-6 -10,-11 -13,-14 -6,-4 -11,-6 -17,-6 -6,0 -11,2 -17,5 -3,2 -8,5 -15,9 -5,3 -10,4 -14,4 -8,1 -14,-2 -20,-7l-2 3c6,6 10,11 13,13 6,4 12,7 18,6 5,0 10,-1 16,-4 3,-2 8,-5 15,-9 6,-3 11,-5 14,-5 8,0 14,2 20,7l2 -2z"/>
   <path class="fil0" d="M367 428c-6,-6 -10,-11 -13,-13 -6,-5 -12,-7 -18,-7 -5,0 -10,2 -16,5 -3,2 -8,5 -15,9 -6,3 -10,4 -14,5 -8,0 -15,-3 -20,-7l-2 2c5,6 10,11 13,13 6,5 11,7 17,7 6,-1 11,-2 17,-5 3,-2 8,-5 15,-9 6,-3 10,-5 14,-5 7,0 14,2 20,7l2 -2z"/>
  </g>
 </g>
</svg>
